HIERARCHY
ROOT Hips
{
	OFFSET -0.179506 -22.333345 2.821913
	CHANNELS 6 Xposition Yposition Zposition Zrotation Yrotation Xrotation 
	JOINT LeftUpLeg
	{
		OFFSET 6.951974 -9.140623 -0.681533
		CHANNELS 3 Zrotation Yrotation Xrotation
		JOINT LeftLeg
		{
			OFFSET 3.427654 -37.519855 -0.449580
			CHANNELS 3 Zrotation Yrotation Xrotation
			JOINT LeftFoot
			{
				OFFSET -1.359570 -39.796059 -4.369333
				CHANNELS 3 Zrotation Yrotation Xrotation
				JOINT LeftToe
				{
					OFFSET 2.635814 -5.579078 11.928840
					CHANNELS 3 Zrotation Yrotation Xrotation
					End Site
					{
						OFFSET 0.000000 0.000000 0.000000
					}
				}
			}
		}
	}
	JOINT RightUpLeg
	{
		OFFSET -6.767048 -9.052170 -0.431982
		CHANNELS 3 Zrotation Yrotation Xrotation
		JOINT RightLeg
		{
			OFFSET -3.829005 -38.256897 -0.885003
			CHANNELS 3 Zrotation Yrotation Xrotation
			JOINT RightFoot
			{
				OFFSET 1.577377 -39.841461 -4.231180
				CHANNELS 3 Zrotation Yrotation Xrotation
				JOINT RightToe
				{
					OFFSET -2.537174 -4.814398 12.334795
					CHANNELS 3 Zrotation Yrotation Xrotation
					End Site
					{
						OFFSET 0.000000 0.000000 0.000000
					}
				}
			}
		}
	}
	JOINT Spine
	{
		OFFSET -0.253288 10.896323 -2.669631
		CHANNELS 3 Zrotation Yrotation Xrotation
		JOINT Spine1
		{
			OFFSET 0.548704 13.518043 0.109247
			CHANNELS 3 Zrotation Yrotation Xrotation
			JOINT Spine2
			{
				OFFSET 0.145701 5.292222 2.542457
				CHANNELS 3 Zrotation Yrotation Xrotation
				JOINT Neck
				{
					OFFSET -0.277840 21.387037 -4.285703
					CHANNELS 3 Zrotation Yrotation Xrotation
					JOINT Head
					{
						OFFSET 0.515184 6.496960 5.134897
						CHANNELS 3 Zrotation Yrotation Xrotation
						End Site
						{
							OFFSET 0.000000 0.000000 0.000000
						}
					}
				}
				JOINT LeftShoulder
				{
					OFFSET 7.884473 12.174932 -3.408961
					CHANNELS 3 Zrotation Yrotation Xrotation
					JOINT LeftArm
					{
						OFFSET 9.097692 3.046888 -0.886815
						CHANNELS 3 Zrotation Yrotation Xrotation
						JOINT LeftForeArm
						{
							OFFSET 25.961220 -1.277207 -2.745643
							CHANNELS 3 Zrotation Yrotation Xrotation
							JOINT LeftHand
							{
								OFFSET 24.923361 0.898606 -0.117091
								CHANNELS 3 Zrotation Yrotation Xrotation
								End Site
								{
									OFFSET 0.000000 0.000000 0.000000
								}
							}
						}
					}
				}
				JOINT RightShoulder
				{
					OFFSET -8.175920 11.883285 -3.861528
					CHANNELS 3 Zrotation Yrotation Xrotation
					JOINT RightArm
					{
						OFFSET -9.601238 3.255117 -0.914307
						CHANNELS 3 Zrotation Yrotation Xrotation
						JOINT RightForeArm
						{
							OFFSET -25.374195 -1.332924 -2.140099
							CHANNELS 3 Zrotation Yrotation Xrotation
							JOINT RightHand
							{
								OFFSET -25.529810 0.777228 -0.555919
								CHANNELS 3 Zrotation Yrotation Xrotation
								End Site
								{
									OFFSET 0.000000 0.000000 0.000000
								}
							}
						}
					}
				}
			}
		}
	}
}
MOTION
Frames: 15
Frame Time: 0.033333
-52.460407 106.754608 -24.528259 59.235724 -30.702871 -139.849519 16.306124 18.992448 -38.925359 -17.041099 28.163757 96.819414 -0.361614 -4.994741 3.443969 1.300001 0.680650 -3.101627 -30.718764 7.144141 -43.469380 10.937651 13.621151 123.302529 -18.828899 -15.350050 1.534341 5.776857 -1.024718 -2.790214 7.385179 -14.432119 32.562963 13.064302 -14.999822 0.044902 2.890299 -7.501025 -3.292580 -10.767026 -0.463640 20.244912 0.921601 -3.449510 -20.640968 3.624757 -25.667434 -4.421838 9.029046 -23.208060 -29.225382 31.675773 -57.649683 -32.447953 34.197680 -12.598070 -19.789141 -1.830772 9.015075 2.488993 30.345895 -2.507340 -17.222822 -104.739529 45.422307 -93.937220 -56.939049 -0.592654 -21.955431 
-53.264175 105.350975 -20.628838 45.055968 -43.018360 -127.925424 15.754873 18.523051 -46.441129 -17.737754 27.713075 85.865746 -0.186319 -2.234296 3.652246 0.857745 0.836924 -2.573393 -30.669498 7.508267 -37.782385 11.579914 12.054085 124.744234 -16.345778 -16.146836 -2.911291 4.611597 -1.245312 -3.538579 6.578044 -12.028182 30.930639 11.249238 -14.342892 1.784858 1.787598 -6.625648 -3.951734 -9.285022 0.508285 25.495780 0.365174 -3.599805 -20.477602 -4.977956 -17.796776 2.289371 6.899612 -10.063713 -22.646673 31.895440 -53.903349 -38.913974 35.118427 -18.356995 -13.895184 4.060178 6.439324 4.562915 34.077301 -6.085006 -14.276583 -107.742668 47.085367 -102.110152 -57.282014 -0.528690 -24.488810 
-54.180073 103.340454 -18.030550 29.254748 -46.254612 -114.276637 14.015429 15.001030 -49.303690 -16.703459 24.893041 75.043651 1.230285 1.977567 3.640295 0.734057 0.934366 -2.153388 -27.856240 7.397833 -36.931156 11.785868 7.294723 127.666892 -15.912582 -15.001912 -6.392386 5.315426 -1.378559 -2.991415 5.057279 -8.682872 29.449696 10.879110 -12.014755 2.570948 1.858370 -4.760151 -4.679751 -7.375321 2.047602 32.126350 2.114677 -6.914728 -21.939657 -4.302302 -13.809840 5.064038 8.140523 -2.228021 -20.762404 19.861480 -42.941059 -29.353631 34.626002 -22.878957 -5.095412 4.177183 5.764360 4.729778 37.824359 -4.966695 -13.438013 -108.831049 46.304146 -105.179491 -62.678544 0.586611 -25.308265 
-54.392265 101.321823 -16.259737 16.930329 -47.647470 -105.107393 14.244209 12.754449 -50.116438 -12.279385 22.565771 72.464610 3.840548 5.404152 5.709231 0.112737 0.748108 -1.103598 -25.243579 5.990713 -38.770188 12.445781 3.042096 128.165026 -14.715128 -12.441881 -4.676030 5.374307 -1.532216 -2.588105 2.395635 -4.859416 28.817986 11.053658 -9.574347 2.630372 1.759997 -3.071416 -4.687373 -5.949256 1.588891 36.376909 4.113697 -6.957365 -21.651688 -2.200910 -12.767084 6.962065 7.886650 2.807071 -16.840878 8.945997 -31.881697 -20.179721 30.944405 -22.387388 5.409897 1.876929 7.622718 4.060380 39.223951 -1.257487 -11.230144 -110.925205 49.521292 -107.649702 -58.133779 1.123465 -24.738899 
-53.935635 100.278534 -15.429850 7.738148 -45.805192 -101.162788 13.807897 11.225150 -48.942270 -11.202933 20.645917 68.928749 5.409933 7.019339 7.388134 0.221752 0.446537 -0.877477 -23.271580 3.932978 -38.286569 12.486580 0.323944 127.151587 -13.676982 -9.633501 -2.863598 4.099515 -0.369225 -2.880501 1.040386 -1.976271 26.123590 9.530318 -8.005637 5.771027 1.211984 -1.018666 -5.154064 -7.715584 1.834328 39.124571 4.964495 -6.652127 -21.179043 -3.125334 -13.629688 7.722604 8.458061 4.914158 -13.046416 5.193016 -27.633788 -15.929373 22.430004 -21.660157 14.380799 3.035568 12.343261 6.296673 33.583866 2.885304 -10.833686 -112.481314 57.301278 -108.131142 -46.814329 8.310452 -22.512896 
-52.959892 99.813858 -15.523724 3.360406 -45.051657 -101.798634 17.660130 12.363499 -49.051551 -11.673958 18.018281 69.364662 4.203454 6.326446 10.171616 0.108507 0.156560 -0.826243 -23.155944 1.903248 -36.191787 14.067242 -1.909509 126.986833 -12.203098 -7.254234 -3.848114 3.287252 0.417074 -3.076959 -1.108648 1.119719 25.976986 8.023488 -6.815232 7.444991 0.936424 0.805754 -5.726471 -7.759438 2.983245 40.517793 7.013891 -8.415127 -20.237560 -1.926368 -15.898360 7.445590 10.187691 6.455843 -10.761943 2.414988 -25.810260 -10.993267 15.866416 -19.124669 20.248135 2.259667 18.990767 7.225341 29.365715 9.388586 -11.189401 -113.151509 65.563723 -106.288937 -34.431954 11.184752 -18.828305 
-52.018772 99.717384 -15.819635 -0.897518 -44.511531 -103.817646 22.353161 14.478151 -52.345187 -12.074064 16.387990 72.275449 2.035508 5.652346 12.971650 0.480867 -0.325061 -0.938538 -23.210364 -0.212535 -33.686941 15.980733 -3.303734 126.268288 -12.267003 -5.669576 -2.512691 3.661715 1.365537 -2.994719 -2.711937 4.623192 27.095969 5.436764 -5.345644 9.212396 0.340814 2.947232 -7.171320 -7.956276 3.002819 40.697607 8.883448 -8.117975 -17.906780 -1.114804 -19.890658 6.155939 11.569689 7.465703 -10.736900 2.477113 -26.699580 -7.599837 15.581389 -18.990130 21.101680 -1.059424 27.893824 6.634799 19.784332 17.292670 -15.345538 -87.906624 75.995566 -81.159245 -24.748253 11.774121 -17.940692 
-51.189384 99.064674 -16.054821 -6.131445 -44.100517 -103.768152 26.500251 16.049925 -54.311321 -12.908165 11.147160 69.951631 -0.416368 5.239922 15.168822 0.751460 -0.227608 -0.908350 -23.108716 -1.604651 -32.590296 17.043508 -4.528759 124.598852 -10.873357 -6.300700 -3.282223 2.890308 1.511683 -2.832391 -3.704152 6.500101 29.833815 2.885863 -3.424028 10.483447 -0.288865 4.554860 -8.644844 -9.360548 1.492881 39.000539 11.637381 -7.974898 -15.351722 0.432047 -24.006398 2.690326 13.270839 6.884368 -11.219858 6.515290 -33.435661 -10.084534 17.446050 -19.826809 18.543598 -6.369831 36.505549 3.648795 4.297115 20.184098 -23.805714 -36.336481 72.058723 -30.749843 -20.567741 14.964720 -15.584244 
-50.525986 98.296097 -15.839197 -12.719355 -44.596070 -100.604534 29.260042 16.207306 -55.469872 -13.969820 5.624053 62.088092 -1.601028 6.392045 13.366870 0.810039 -0.061900 -0.300129 -22.028200 -3.293600 -33.630289 17.063628 -6.228208 120.830395 -8.977440 -6.413978 -4.196696 1.930385 1.062942 -2.505412 -4.358098 7.224334 33.740445 -0.504182 -1.429770 9.280616 -1.081201 5.026498 -8.802094 -10.879076 -0.091784 35.323601 13.887228 -7.780036 -13.141050 2.129782 -25.658163 -2.873150 13.838019 3.042071 -12.708971 17.400218 -40.353616 -19.747384 24.115054 -22.438609 14.327969 -12.016742 40.429736 -0.962606 -7.499943 19.590725 -30.024744 -17.759967 62.063881 -13.366778 -19.107302 18.378752 -13.159760 
-49.640984 97.799629 -14.951052 -24.719207 -45.650435 -93.076476 29.658475 17.225412 -57.945564 -13.198082 1.770897 52.809704 -3.886023 6.545399 14.898431 0.566566 -0.018022 0.008439 -19.414300 -5.452140 -36.888230 16.410345 -6.700644 114.919531 -7.303397 -4.980462 -3.541327 1.450472 0.568976 -2.374562 -4.608224 7.583309 36.142070 -2.344315 0.006338 8.345425 -1.097310 5.170437 -8.986528 -11.373345 -0.722076 33.523433 16.628303 -7.260994 -12.766469 4.688726 -26.806316 -6.983906 13.958242 -2.734578 -15.308026 30.994340 -46.287068 -32.650311 32.515845 -24.323463 10.408910 -16.471636 40.433145 -4.206434 -10.707363 15.314956 -32.205800 -18.730818 63.368722 -15.421357 -24.846141 20.885207 -12.207759 
-48.151363 97.597755 -13.775129 -39.426632 -49.120229 -84.986210 30.304159 17.361221 -60.533115 -10.038034 -0.254868 44.727298 -4.830962 7.448363 12.592842 1.328087 -0.157417 -0.215808 -18.782109 -7.807058 -43.614341 16.162812 -9.284649 109.113900 -4.242103 0.423544 -4.704336 1.978256 0.680352 -1.588557 -5.414998 6.949072 38.125626 -1.564399 -0.662102 7.233417 -0.709118 4.419407 -8.629048 -9.153999 -0.396058 30.772899 17.586596 -8.461839 -10.032962 5.374159 -23.996045 -8.375903 14.197561 -8.488289 -18.045787 29.738395 -43.413114 -37.231729 42.170812 -20.777319 2.850079 -15.101558 37.653824 -4.913590 -9.279314 19.811829 -32.980204 -21.868431 59.913960 -23.060377 -31.693733 20.950089 -13.085059 
-46.469078 97.563461 -13.134838 -56.867492 -49.661855 -72.807414 29.630159 17.941148 -63.830818 -9.601979 0.280170 44.635942 -5.704214 5.882489 9.181561 0.815388 0.009242 -0.668533 -17.231774 -9.197404 -51.567797 13.307996 -7.866970 101.265753 -3.945894 0.487416 -7.748549 2.140934 -0.020390 -1.289864 -4.838328 6.452515 39.490857 -1.171745 -0.540374 4.368628 0.572121 3.913404 -8.723219 -9.388531 -2.720550 25.730477 18.279228 -11.162719 -11.466505 4.410793 -24.308346 -7.814409 11.367042 -14.051843 -19.304498 34.025857 -47.368475 -39.287632 44.248732 -20.238843 1.339179 -14.164046 34.905734 -5.217995 -3.856220 21.813536 -30.249138 -31.518340 66.124887 -31.593257 -36.852323 19.760482 -13.715564 
-44.687809 97.156075 -12.883657 -80.720375 -51.085166 -51.499200 32.112898 23.875083 -67.111171 -8.257546 2.238361 45.683509 -6.435368 2.606296 5.735995 0.391637 0.156020 -0.124644 -19.616264 -10.827948 -46.319633 11.771905 -0.826419 80.325394 -4.353298 -0.141796 -10.538599 1.203825 -0.739600 -0.760722 -4.614187 6.968442 39.513112 0.714158 -2.415332 0.299096 1.486100 2.704634 -7.426418 -9.083621 -5.998658 21.376094 20.612268 -13.141337 -14.319920 5.093186 -22.897753 -7.957719 12.376095 -17.724564 -18.948815 30.055916 -55.431872 -34.861591 46.499915 -17.658168 -3.033933 -10.469100 30.937935 -4.635684 1.854268 26.915988 -28.440528 -43.961835 69.379924 -44.842270 -37.880923 15.831991 -19.975823 
-42.357227 96.061058 -13.828215 -96.329413 -41.706094 -36.810994 34.785212 27.490480 -67.185942 -7.308693 4.587318 49.607636 -5.907355 2.318709 2.746916 -0.310846 0.307101 0.854712 -21.617965 -10.628933 -36.155190 7.368422 3.879725 62.544019 -2.112083 -3.941298 -10.852545 -0.263386 -0.971751 -0.500681 -5.408992 8.351933 38.005217 1.346849 -4.383978 -3.255785 2.152752 1.872168 -4.450250 -8.392377 -6.379554 16.405887 20.792861 -12.862264 -17.605078 7.215856 -22.040171 -8.237633 14.459108 -17.077093 -19.809115 25.319958 -58.315724 -33.382657 48.854372 -16.556023 -6.898204 -9.264813 28.426565 -5.097259 7.775354 30.009665 -24.354385 -69.283022 74.564678 -68.510923 -36.950314 13.715712 -22.450394 
-39.746532 94.331230 -15.659269 -108.126918 -28.834662 -23.903086 36.799483 27.202063 -67.306520 -3.858923 3.572456 48.719111 -4.797219 4.146424 6.370062 -0.179519 0.555540 -0.135570 -23.028749 -8.675291 -22.404213 5.920246 8.824387 55.601145 0.805752 -4.393179 -2.636849 0.955442 -0.709159 0.109637 -7.650956 9.359350 33.248185 1.464703 -5.691652 -1.927533 2.913430 1.134016 -3.822322 -9.970251 -5.543519 15.597217 19.723596 -13.327310 -17.440554 9.001514 -19.879734 -8.731903 13.736708 -18.534621 -19.538959 19.420613 -59.756546 -23.482117 51.670562 -16.828016 -5.580369 -6.554813 25.471187 -4.155541 24.212840 30.733337 -17.053833 -98.182076 70.496656 -96.893068 -41.837561 9.458705 -29.346307 
